<svg xmlns="http://www.w3.org/2000/svg" viewBox="0 0 219 40" fill="none" id="Champion-Logo-Full-Red">
<path xmlns="http://www.w3.org/2000/svg" fill-rule="evenodd" clip-rule="evenodd" d="M133.768 39.6881C134.127 40.2279 136.826 39.928 137.365 39.8081C138.565 39.5082 138.265 38.6086 138.265 36.9293C138.265 35.7898 138.145 34.7102 138.145 33.5707C138.145 32.971 138.205 32.4312 138.145 31.8314C138.025 27.2734 139.044 23.7948 141.143 21.3359C142.582 19.5966 144.321 18.9969 144.621 18.9369C145.76 18.697 146.42 18.9969 146.599 19.8365C146.899 21.096 146.599 22.1155 145.76 22.9552C144.561 24.1547 143.961 23.6749 142.882 23.6149C142.162 23.6149 142.162 23.9148 142.882 24.5745C145.82 27.2134 150.077 26.4937 150.617 26.4337C155.654 25.774 158.652 22.2955 159.311 22.1755C159.971 22.0556 159.011 24.8144 161.11 25.834C163.509 26.9135 169.085 26.3737 172.083 23.9148L174.002 22.2955C174.781 21.6357 174.122 24.0347 177.719 25.8939C181.857 28.113 189.172 26.3737 189.412 20.6162C189.472 18.9369 188.033 18.1572 189.832 17.7974C192.47 17.3176 191.63 17.6174 193.909 22.3554C194.509 23.6149 194.928 24.3946 195.108 24.6945C195.528 25.4141 196.008 26.4337 197.207 26.1938C198.766 25.834 201.584 22.7153 201.824 22.3554L203.323 20.4962C203.503 20.3163 203.743 20.3763 204.043 20.7361L208.18 25.5941C208.6 26.0739 209.139 26.2538 209.919 26.2538C210.758 26.2538 211.778 25.834 212.977 25.0543C215.135 23.6749 216.754 22.3554 217.774 21.096C218.913 19.7166 219.273 18.757 218.793 18.3971C217.654 17.4375 215.735 19.7166 214.296 20.4362C210.458 22.1755 208.36 15.6383 206.861 14.7986C205.721 14.1989 204.102 14.9186 202.004 16.9577L200.145 18.757C199.425 19.4767 198.886 16.9577 198.346 15.9381C197.926 15.2184 197.567 14.7387 197.267 14.5587C196.248 14.0789 190.251 15.9381 186.774 16.0581L184.015 16.178C183.116 16.238 184.195 17.4375 184.375 18.3971C184.735 20.4362 183.955 22.4754 182.756 22.7753C180.598 23.315 179.998 19.8365 180.178 18.637C180.598 15.6383 183.776 15.1585 184.015 15.0385C184.615 14.6187 184.015 14.1389 182.636 13.959C177.42 13.3592 175.621 18.9369 169.805 22.1155C165.307 24.5745 166.627 21.4558 166.447 19.5366C166.087 15.0385 167.946 14.7387 162.129 14.9186C161.71 14.9186 160.331 14.7387 159.971 15.6982C159.371 17.1976 160.451 17.3775 159.071 18.9969C157.392 20.976 155.534 22.1755 153.495 22.6553C150.497 23.315 151.876 21.8756 152.176 20.976C152.416 20.2563 152.536 19.6566 152.596 19.1768C152.775 17.0777 150.077 14.6787 145.7 15.3384C141.862 15.8782 138.864 19.2967 138.744 19.3567L138.505 19.4767H138.385C138.325 19.4767 138.325 18.9969 138.325 18.0373C138.385 15.7582 138.684 15.2184 136.706 15.1585C134.367 15.0385 134.247 15.4583 133.888 15.9381C133.228 16.7178 132.868 17.6774 132.269 18.4571C130.59 20.7361 129.33 21.7557 128.551 21.4558C128.071 21.2759 123.095 15.5783 122.075 15.3384C121.176 15.1585 120.336 15.5183 119.557 16.4179L116.319 20.4362C116.079 20.7361 115.719 20.6761 115.359 20.1964L112.241 16.178C111.642 15.4583 109.903 14.7986 108.524 16.4779L105.226 20.5562C105.046 20.7961 104.746 20.7361 104.387 20.3163L100.729 15.8782C100.609 15.7582 99.8294 15.1585 98.93 15.5183C98.0906 15.8182 95.872 18.0972 93.9532 19.7765C93.2337 20.3763 92.6341 21.096 91.8546 21.6957L91.5548 21.8756C90.8352 22.2355 90.1756 20.7361 89.576 20.0164C88.3768 18.577 87.5973 17.7974 87.1176 17.6774C84.899 17.0177 85.1389 20.3163 84.7791 21.4558C83.8797 24.0947 80.282 24.3346 80.222 21.5158C80.222 18.2772 84.3594 16.8977 84.5992 16.7778C84.959 16.5379 85.5586 15.8782 84.2395 15.7582C81.6611 15.5183 78.9029 16.4179 75.8448 18.3971L70.868 21.7557C68.6495 23.2551 67.0305 17.8573 66.4309 16.8977C66.1311 16.4779 65.6514 15.3984 64.0924 15.7582C63.4328 15.9381 62.3535 16.7178 60.7945 18.0972L58.2162 20.4962C58.0363 20.6761 57.8564 20.6162 57.7365 20.3763C57.6166 20.1364 57.4367 18.4571 57.3767 15.3384C57.3167 13.4192 57.4367 11.5 57.3167 9.6408C57.2568 8.56126 57.1369 8.50128 57.3167 6.10229C57.3167 5.86239 57.3767 5.68247 57.3767 5.44257C57.3767 4.60292 56.7171 4.78285 55.0982 4.72287C53.2993 4.48297 52.1601 4.24308 52.1601 5.20267L51.8003 13.4792C51.5604 18.757 51.7403 22.4154 52.3999 24.3346C52.8796 25.8939 53.5991 26.7336 54.6185 26.8535C57.3767 27.2734 59.8951 23.315 60.3148 22.8352C60.6746 22.4754 61.0344 21.9356 61.7539 22.7153C62.2336 23.2551 62.4734 23.9748 62.9531 24.5745C64.5721 26.7936 65.1717 26.7936 66.7907 26.7936C69.6688 26.7336 72.6069 23.7349 73.2665 23.435C74.106 23.0152 73.986 23.9148 74.1659 24.2746C74.8855 26.1938 77.4638 27.5732 80.5218 26.9135C84.2994 26.0739 84.3594 24.0947 85.5586 24.5145C86.3381 24.7544 87.2375 27.3333 89.2762 27.0934C90.4155 26.9735 93.0538 24.5745 94.7327 23.375C95.9319 22.4754 96.6515 21.9956 96.8314 21.8756C97.9706 21.2159 98.0906 22.7753 100.729 25.774C101.688 26.8535 102.768 27.9331 105.046 25.5941L108.464 22.1755C109.243 21.3958 110.263 23.8548 112.661 26.2538C112.841 26.4337 112.961 26.6136 113.141 26.7336C113.92 27.2734 114.94 26.7936 116.319 25.2342L119.017 22.1755C119.257 21.9356 119.557 21.9956 119.977 22.3554C121.536 23.7948 123.394 26.7336 124.953 26.8535C126.332 26.9735 128.191 26.0739 130.59 24.1547L132.868 22.2955C133.588 21.6957 133.108 23.6749 133.408 27.7532C133.528 29.0726 133.528 30.6919 133.468 32.4912C133.108 35.9097 133.648 39.5082 133.768 39.6881Z" fill="#EC1C24"/>
<path xmlns="http://www.w3.org/2000/svg" fill-rule="evenodd" clip-rule="evenodd" d="M20.6207 30.3919C23.6188 30.7518 26.6169 30.7518 29.6749 30.4519C32.4331 30.152 34.7117 29.7322 36.5705 29.1925C42.2069 27.5132 46.2243 24.6344 48.143 22.2954C49.5821 20.5561 47.6633 21.7556 46.5241 22.1754C42.9863 23.5548 39.3287 24.5144 35.6111 25.1142C32.1933 25.6539 32.673 25.414 32.673 24.0946C32.5531 18.2171 32.9128 12.3396 32.7329 6.522C32.673 4.96266 32.7329 5.02263 34.4718 5.20256C37.6498 5.50243 41.0676 6.2821 44.7252 7.54157C45.3848 7.78147 48.203 9.34081 46.584 6.82187C43.0463 1.42415 31.7736 0.164678 27.996 0.0447286C4.85085 -0.914867 -6.60179 13.7789 3.95143 23.6148C7.90889 27.3332 13.4853 29.6123 20.6207 30.3919Z" fill="#EC1C24"/>
<path xmlns="http://www.w3.org/2000/svg" fill-rule="evenodd" clip-rule="evenodd" d="M16.1249 5.08293C16.5446 4.96298 16.9044 4.90301 17.3241 4.96298C17.8638 5.02296 17.8638 5.26286 17.9237 5.68268L17.8638 24.6947C17.8638 24.9346 17.8038 25.0545 17.6839 25.1745C17.3841 25.3544 14.386 24.9945 12.827 24.5147C10.7883 23.915 6.77089 22.1158 5.03201 18.6372C4.13259 16.718 4.19255 14.499 4.31247 14.0192C5.27186 8.80136 10.8483 5.80263 16.1249 5.08293Z" fill="white"/>
<path xmlns="http://www.w3.org/2000/svg" fill-rule="evenodd" clip-rule="evenodd" d="M161.588 12.8191C162.428 13.059 165.906 13.119 166.325 10.6C166.745 8.08107 162.548 6.70166 160.149 8.56087C158.77 9.58044 158.41 12.0394 161.588 12.8191Z" fill="#EC1C24"/>
<path xmlns="http://www.w3.org/2000/svg" d="M213.517 8.44141C212.318 8.44141 211.359 9.401 211.359 10.6005C211.359 11.8 212.318 12.7596 213.517 12.7596C214.716 12.7596 215.676 11.8 215.676 10.6005C215.736 9.401 214.716 8.44141 213.517 8.44141ZM213.517 12.4597C212.498 12.4597 211.658 11.6201 211.658 10.6605C211.658 9.6409 212.498 8.80125 213.457 8.80125C214.477 8.80125 215.316 9.6409 215.316 10.6605C215.376 11.68 214.537 12.4597 213.517 12.4597Z" fill="#EC1C24"/>
<path xmlns="http://www.w3.org/2000/svg" d="M214.536 10.0606C214.536 9.70075 214.236 9.40088 213.816 9.40088H212.557V11.8598H213.037V10.8403H213.516C213.756 10.8403 213.936 11.0202 213.936 11.44C213.936 11.7399 213.936 11.7399 213.996 11.8598H214.476C214.416 11.6199 214.476 11.38 214.416 11.1401C214.356 10.9002 214.176 10.7203 213.996 10.7203C214.356 10.6004 214.536 10.3605 214.536 10.0606ZM213.696 10.4804H213.037V9.76073H213.636C213.876 9.76073 213.996 9.94065 213.996 10.1206C214.056 10.3605 213.936 10.5404 213.696 10.4804Z" fill="#EC1C24"/>
</svg>